<svg width="100%" height="100%" viewBox="0 0 24 24" fill="none" xmlns="http://www.w3.org/2000/svg"><path d="M10.0002 5h-1.8c-1.12011 0-1.68058 0-2.1084.21799-.37633.19174-.68207.49748-.87381.87381C5 6.51962 5 7.08009 5 8.2002v7.6c0 1.1201 0 1.6799.21799 2.1077.19174.3763.49748.6826.87381.8743C6.5192 19 7.07899 19 8.19691 19h7.60619c1.1179 0 1.6769 0 2.1043-.2178.3763-.1917.6831-.4983.8748-.8746C19 17.4802 19 16.921 19 15.8031V14m1-5V4m0 0h-5m5 0-7 7" stroke="currentColor" stroke-width="2" stroke-linecap="round" stroke-linejoin="round"/></svg>